<svg id="Hes" xmlns="http://www.w3.org/2000/svg" viewBox="0 0 250.52 68.55"><path d="M50,95c-.58,0-.62,0-1.24,0l-.06-.07c0-1.16.06-2.41.05-3.47h-1l-2.55,0c0,2,0,2.65.08,3.43l-.05.07c-.6,0-.64,0-1.24,0l-.07-.07c0-1,0-1.54,0-4.67,0-1.39,0-1.89-.06-2.51l.06-.07,1.22,0,.06.07c0,.61,0,1.46,0,2.87l1.59,0c1,0,1.47,0,2,0,0-2,0-2.19-.08-2.83l.06-.07,1.22,0,.06.07c0,1,0,1.65,0,3.46,0,2,0,2.77.11,3.72Z" transform="translate(-25.79 -38.9)"/><path d="M55.12,92.05v1.73a1.8,1.8,0,0,1-1.2.45.93.93,0,0,1-1-.94c0-.92,1-1.06,2.14-1.22Zm1.13-.25a6.27,6.27,0,0,0-.08-1.29c-.23-.81-1-1.06-1.83-1.06a5.9,5.9,0,0,0-1.9.34l-.06.06c0,.22,0,.28,0,.75l.09.05a4,4,0,0,1,1.67-.39,1,1,0,0,1,.91.38,1.22,1.22,0,0,1,.1.64l-.19,0c-2,.22-3.2.66-3.2,2a1.72,1.72,0,0,0,1.86,1.72,2.43,2.43,0,0,0,1.54-.53v.37l0,.06,1.11,0,.06-.05a16.8,16.8,0,0,1-.07-2.07v-1Z" transform="translate(-25.79 -38.9)"/><path d="M63.11,89.62c0,.78,0,1.52,0,2.35,0,1.27,0,2,.06,2.48,0,.15,0,.29,0,.43l0,.06L62,95l-.07-.06v-.43a2.92,2.92,0,0,1-1.72.59A2.12,2.12,0,0,1,59,94.73a2.6,2.6,0,0,1-.71-2.22v-.64c0-1.48,0-1.64-.06-2.2l.06-.07c.52,0,.61,0,1.13,0l.07.07,0,2.26c0,.28,0,.49,0,1s0,1.36,1.14,1.36a2.21,2.21,0,0,0,1.37-.54c0-.56,0-1,0-1.63a19,19,0,0,0-.08-2.4l.07-.07c.5,0,.62,0,1.13,0Z" transform="translate(-25.79 -38.9)"/><path d="M67.67,94.14c0,.34,0,.41,0,.71l-.06.06a3.26,3.26,0,0,1-.82.09,1.45,1.45,0,0,1-1.29-.54c-.2-.3-.2-.55-.2-1.77l0-2.27-.79,0,0-.06c0-.33,0-.41,0-.74l.06-.06c.24,0,.38,0,.75,0,0-.22,0-.44,0-.66l0-.59.05-.07c.49-.11.61-.14,1.12-.29l.08,0c0,.68,0,.82,0,1.57l1.22,0,.06.06c0,.27,0,.38,0,.73l0,.06-1.2,0,0,1.92c0,.12,0,.71,0,.86,0,.75.1,1,.65,1a1.64,1.64,0,0,0,.53-.09Z" transform="translate(-25.79 -38.9)"/><path d="M72.72,91.61c-1,0-1.43,0-2.75,0a1.46,1.46,0,0,1,1.45-1.43,1.24,1.24,0,0,1,1.2.81A2.31,2.31,0,0,1,72.72,91.61Zm.82,2a2.68,2.68,0,0,1-.79.45,3.16,3.16,0,0,1-1,.16,1.84,1.84,0,0,1-1.42-.56A1.94,1.94,0,0,1,70,92.4c1.8,0,2.09,0,3.81,0l.08-.06a3.18,3.18,0,0,0-.59-2.18,2.36,2.36,0,0,0-1.8-.71,2.82,2.82,0,0,0,.27,5.63,3.84,3.84,0,0,0,1.76-.39l.07-.07a7.34,7.34,0,0,1,.09-.92Z" transform="translate(-25.79 -38.9)"/><path d="M84,94.11c0,.35,0,.42-.06.77l-.08.07c-2.14,0-2.48,0-4.56,0l-.06-.07c0-.82.07-1.37.07-3.26s0-2.73-.08-3.92l.07-.07,4.61,0,.07.07c0,.31-.06.43-.08.81l-.07.07c-1.42,0-1.89,0-3.28,0,0,1,0,1.25,0,2.2,1.35,0,1.77,0,3.1,0l.05.07a7.63,7.63,0,0,0-.05.8l-.07.07c-1.27,0-1.55,0-3,0,0,1.2,0,1.49,0,2.47,1.66,0,2,0,3.41,0Z" transform="translate(-25.79 -38.9)"/><path d="M89.78,93.73c0,.44-.06.5-.09.92l-.08.07a3.28,3.28,0,0,1-1.51.35,2.59,2.59,0,0,1-2.73-2.74,2.68,2.68,0,0,1,2.75-2.88,3.83,3.83,0,0,1,1.5.33l0,.07c0,.37,0,.51-.08.82l-.09,0a2.14,2.14,0,0,0-1.22-.4,1.75,1.75,0,0,0-1.71,2,1.67,1.67,0,0,0,1.7,1.91,2.22,2.22,0,0,0,1.42-.52Z" transform="translate(-25.79 -38.9)"/><path d="M95.12,92.23a3,3,0,0,1-.25,1.37,1.35,1.35,0,0,1-1.25.69,1.61,1.61,0,0,1-.65-.13,1.93,1.93,0,0,1-.88-1.87,2.6,2.6,0,0,1,.33-1.46,1.39,1.39,0,0,1,1.21-.6,1.3,1.3,0,0,1,1.17.59A3.17,3.17,0,0,1,95.12,92.23Zm1.19,0a3,3,0,0,0-.67-2,2.64,2.64,0,0,0-2-.74,2.57,2.57,0,0,0-2.8,2.82,2.9,2.9,0,0,0,.76,2.11,2.74,2.74,0,0,0,2,.69,2.67,2.67,0,0,0,1.9-.63,2.41,2.41,0,0,0,.71-1.25A4.17,4.17,0,0,0,96.31,92.19Z" transform="translate(-25.79 -38.9)"/><path d="M99.24,95l-1.15,0,0-.07c0-.73,0-1.66,0-3.65,0-1.43,0-3-.11-4.28l0-.06c.54-.08.65-.1,1.2-.22l.07.07c-.08,1.35-.08,2.72-.08,4.07,0,2.26,0,3.05.09,4Z" transform="translate(-25.79 -38.9)"/><path d="M104.93,91.61c-1,0-1.42,0-2.75,0a1.46,1.46,0,0,1,1.45-1.43,1.24,1.24,0,0,1,1.2.81A2.31,2.31,0,0,1,104.93,91.61Zm.82,2a2.68,2.68,0,0,1-.79.45,3.16,3.16,0,0,1-.95.16,1.85,1.85,0,0,1-1.42-.56,1.94,1.94,0,0,1-.42-1.29c1.8,0,2.09,0,3.81,0l.08-.06a3.18,3.18,0,0,0-.59-2.18,2.36,2.36,0,0,0-1.8-.71,2.82,2.82,0,0,0,.27,5.63,3.74,3.74,0,0,0,1.75-.39l.07-.07a7.34,7.34,0,0,1,.09-.92Z" transform="translate(-25.79 -38.9)"/><path d="M114.3,90.82c.8.33,1.86.77,1.86,2.09,0,1.16-.91,2.2-2.82,2.2a5.06,5.06,0,0,1-2.17-.45l0-.07c0-.36.05-.56.09-1l.11,0a3.34,3.34,0,0,0,1.93.61c1.13,0,1.6-.55,1.6-1.17s-.64-1-1.35-1.26l-.55-.23c-.78-.34-1.82-.79-1.82-2a1.82,1.82,0,0,1,.34-1.08,2.78,2.78,0,0,1,2.3-.91,6.15,6.15,0,0,1,2,.33l.06.08c0,.39-.06.54-.09.91l-.09,0a3.76,3.76,0,0,0-1.81-.48c-.91,0-1.48.4-1.48,1a1,1,0,0,0,.56.82,6.89,6.89,0,0,0,.85.37Z" transform="translate(-25.79 -38.9)"/><path d="M119.06,94.16c0-.6,0-1.21,0-1.82s0-1,0-1.59a2.26,2.26,0,0,1,1.26-.43c.88,0,1.48.66,1.48,1.74a2.06,2.06,0,0,1-2.28,2.14Zm0-4.59-.08-.06-1.15.21-.06.06a29.71,29.71,0,0,1,.14,3.5c0,.61,0,1.22,0,1.83,0,1,0,1.7,0,2.34l.06.06,1.15,0,.07-.06c-.06-1-.08-1.24-.09-2.48l.49,0c2.31,0,3.44-1.37,3.44-3a2.37,2.37,0,0,0-2.37-2.53A2.53,2.53,0,0,0,119,90Z" transform="translate(-25.79 -38.9)"/><path d="M128.39,91.61c-1,0-1.42,0-2.75,0a1.46,1.46,0,0,1,1.45-1.43,1.21,1.21,0,0,1,1.19.81A2,2,0,0,1,128.39,91.61Zm0-4.32h-1.28l-.07,0c-.24.67-.56,1.33-.67,1.58l0,.07h.8l.08,0a16.81,16.81,0,0,1,1.13-1.59Zm.87,6.35a2.68,2.68,0,0,1-.79.45,3.1,3.1,0,0,1-.95.16,1.82,1.82,0,0,1-1.41-.56,1.94,1.94,0,0,1-.42-1.29c1.8,0,2.09,0,3.81,0l.08-.06a3.18,3.18,0,0,0-.59-2.18,2.36,2.36,0,0,0-1.8-.71,2.82,2.82,0,0,0,.26,5.63,3.74,3.74,0,0,0,1.75-.39l.07-.07a7.34,7.34,0,0,1,.09-.92Z" transform="translate(-25.79 -38.9)"/><path d="M135.31,93.73c0,.44-.05.5-.09.92l-.08.07a3.32,3.32,0,0,1-1.51.35,2.59,2.59,0,0,1-2.73-2.74,2.68,2.68,0,0,1,2.75-2.88,3.83,3.83,0,0,1,1.5.33l0,.07c0,.37-.05.51-.08.82l-.09,0a2.14,2.14,0,0,0-1.22-.4,1.75,1.75,0,0,0-1.71,2,1.66,1.66,0,0,0,1.7,1.91,2.17,2.17,0,0,0,1.41-.52Z" transform="translate(-25.79 -38.9)"/><path d="M137.91,95c-.57,0-.66,0-1.19,0l-.06-.07c0-.55.07-1,.07-2.17a19.81,19.81,0,0,0-.11-3l0-.07c.47-.07.64-.09,1.18-.21l.11.06c0,.54-.07,1.09-.07,2.43,0,1.92,0,2.18.07,2.88Zm0-6.88c-.56,0-.68,0-1.22.08l-.07-.06c0-.13,0-.28,0-.41s0-.35,0-.56l.08-.06,1.22-.1L138,87c0,.42,0,.53,0,1Z" transform="translate(-25.79 -38.9)"/><path d="M143,92.05v1.73a1.8,1.8,0,0,1-1.2.45.93.93,0,0,1-1-.94c0-.92,1-1.06,2.14-1.22Zm1.13-.25a6.27,6.27,0,0,0-.08-1.29c-.23-.81-1-1.06-1.83-1.06a5.9,5.9,0,0,0-1.9.34l-.07.06c0,.22,0,.28,0,.75l.09.05a4,4,0,0,1,1.67-.39,1,1,0,0,1,.91.38,1.22,1.22,0,0,1,.1.64l-.19,0c-2,.22-3.2.66-3.2,2a1.72,1.72,0,0,0,1.86,1.72,2.43,2.43,0,0,0,1.54-.53v.37l0,.06,1.11,0,.05-.05a20,20,0,0,1-.06-2.07Z" transform="translate(-25.79 -38.9)"/><path d="M147.33,95l-1.15,0-.06-.07c0-.73.06-1.66.06-3.65,0-1.43,0-3-.11-4.28l.06-.06c.54-.08.65-.1,1.19-.22l.07.07c-.08,1.35-.08,2.72-.08,4.07,0,2.26,0,3.05.09,4Z" transform="translate(-25.79 -38.9)"/><path d="M150.59,95c-.57,0-.66,0-1.2,0l0-.07c0-.55.06-1,.06-2.17a19.81,19.81,0,0,0-.11-3l.05-.07c.47-.07.64-.09,1.18-.21l.11.06c0,.54-.07,1.09-.07,2.43,0,1.92,0,2.18.07,2.88Zm0-6.88c-.56,0-.68,0-1.22.08l-.07-.06c0-.13,0-.28,0-.41s0-.35,0-.56l.08-.06,1.22-.1.07.06c0,.42,0,.53,0,1Z" transform="translate(-25.79 -38.9)"/><path d="M154.93,91.82a1.68,1.68,0,0,1,1.44,1.55,1.5,1.5,0,0,1-.61,1.22,2.87,2.87,0,0,1-1.76.5,4.15,4.15,0,0,1-1.5-.26l-.16-.06-.06-.09c0-.4,0-.45.07-.87l.11,0a2.46,2.46,0,0,0,1.52.5c.87,0,1.18-.45,1.18-.77,0-.48-.47-.63-1.14-.84l-.35-.11c-.45-.13-1.44-.43-1.44-1.5s1-1.59,2.21-1.59a4.48,4.48,0,0,1,1.58.29l.06.07c0,.38-.06.42-.09.82l-.1,0a2.52,2.52,0,0,0-1.42-.41,1.93,1.93,0,0,0-.47,0,.69.69,0,0,0-.6.62c0,.44.45.58,1.13.77Z" transform="translate(-25.79 -38.9)"/><path d="M161.54,91.61c-1,0-1.42,0-2.75,0a1.46,1.46,0,0,1,1.45-1.43,1.24,1.24,0,0,1,1.2.81A2.31,2.31,0,0,1,161.54,91.61Zm0-4.32h-1.27l-.07,0c-.24.67-.56,1.33-.67,1.58l0,.07h.8l.08,0a16.81,16.81,0,0,1,1.13-1.59Zm.88,6.35a2.68,2.68,0,0,1-.79.45,3.16,3.16,0,0,1-1,.16,1.85,1.85,0,0,1-1.42-.56,1.94,1.94,0,0,1-.42-1.29c1.8,0,2.09,0,3.81,0l.08-.06a3.18,3.18,0,0,0-.59-2.18,2.36,2.36,0,0,0-1.8-.71,2.82,2.82,0,0,0,.27,5.63,3.84,3.84,0,0,0,1.76-.39l.06-.07a7.34,7.34,0,0,1,.09-.92Z" transform="translate(-25.79 -38.9)"/><path d="M168,91.61c-1,0-1.43,0-2.75,0a1.46,1.46,0,0,1,1.45-1.43,1.23,1.23,0,0,1,1.2.81A2.31,2.31,0,0,1,168,91.61Zm.82,2a2.68,2.68,0,0,1-.79.45,3.16,3.16,0,0,1-.95.16,1.85,1.85,0,0,1-1.42-.56,1.94,1.94,0,0,1-.42-1.29c1.8,0,2.09,0,3.8,0l.08-.06a3.18,3.18,0,0,0-.59-2.18,2.36,2.36,0,0,0-1.8-.71,2.82,2.82,0,0,0,.27,5.63,3.84,3.84,0,0,0,1.76-.39l.06-.07a7.34,7.34,0,0,1,.09-.92Z" transform="translate(-25.79 -38.9)"/><path d="M59,106a1.89,1.89,0,0,1-1.23.46,1.48,1.48,0,0,1-1.13-.47,1.88,1.88,0,0,1-.41-1.27,2.06,2.06,0,0,1,.64-1.62,2.41,2.41,0,0,1,1.59-.48c.23,0,.36,0,.55,0C59,104.36,59,104.67,59,106Zm-.05-6.69a23,23,0,0,1,.1,2.5c-.3,0-.41,0-.64,0a3.64,3.64,0,0,0-2.41.71,2.8,2.8,0,0,0-1,2.22,2.45,2.45,0,0,0,2.47,2.66,2.36,2.36,0,0,0,1.51-.52l0,.38.08.06c.5,0,.64,0,1.12,0l.06-.07c0-.71-.09-1.48-.09-3.08,0-1,0-3.6.09-5l-.08-.06L59,99.27Z" transform="translate(-25.79 -38.9)"/><path d="M65.85,104c-1,0-1.43,0-2.75,0a1.46,1.46,0,0,1,1.45-1.43,1.24,1.24,0,0,1,1.2.81A3.62,3.62,0,0,1,65.85,104Zm.82,2a2.68,2.68,0,0,1-.79.45,3.16,3.16,0,0,1-.95.16,1.82,1.82,0,0,1-1.41-.56,1.94,1.94,0,0,1-.42-1.29h3.81l.08-.06a3.18,3.18,0,0,0-.59-2.18,2.36,2.36,0,0,0-1.8-.71,2.82,2.82,0,0,0,.26,5.63,3.74,3.74,0,0,0,1.75-.39l.07-.07a7.34,7.34,0,0,1,.09-.92Z" transform="translate(-25.79 -38.9)"/><path d="M75.21,103.16c.8.33,1.86.76,1.86,2.09,0,1.16-.91,2.2-2.82,2.2a4.86,4.86,0,0,1-2.17-.46l0-.07c0-.36,0-.56.09-1l.11,0a3.31,3.31,0,0,0,1.93.61c1.13,0,1.6-.55,1.6-1.17s-.64-1-1.35-1.26l-.55-.23c-.78-.34-1.82-.79-1.82-2a1.85,1.85,0,0,1,.34-1.09,2.78,2.78,0,0,1,2.3-.91,5.89,5.89,0,0,1,2,.33l0,.08c0,.39,0,.54-.09.91l-.09,0a3.76,3.76,0,0,0-1.81-.48c-.91,0-1.48.4-1.48,1a1,1,0,0,0,.56.82,7.12,7.12,0,0,0,.84.37Z" transform="translate(-25.79 -38.9)"/><path d="M83.62,102c0,.78,0,1.52,0,2.35,0,1.27,0,2,.06,2.48,0,.14,0,.29,0,.43l0,.06-1.12,0-.06-.06v-.43a2.92,2.92,0,0,1-1.72.59,2.12,2.12,0,0,1-1.25-.35,2.6,2.6,0,0,1-.71-2.22v-.64c0-1.48,0-1.64-.06-2.2l.06-.07c.51,0,.61,0,1.13-.05L80,102l0,2.26c0,.28,0,.49,0,1s0,1.36,1.14,1.36a2.21,2.21,0,0,0,1.37-.54c0-.56,0-1,0-1.63a19,19,0,0,0-.08-2.4l.07-.07c.5,0,.63,0,1.13,0Z" transform="translate(-25.79 -38.9)"/><path d="M86.87,107.28c-.57,0-.66,0-1.2,0l0-.07c0-.55.07-1,.07-2.17a19.54,19.54,0,0,0-.11-3l.06-.07c.47-.07.64-.09,1.18-.21l.11.06c0,.54-.07,1.09-.07,2.43,0,1.92,0,2.18.07,2.88Zm0-6.87c-.56,0-.68,0-1.22.08l-.07-.06c0-.13,0-.28,0-.41s0-.35,0-.56l.08-.06,1.22-.1.06.06c0,.42,0,.53,0,1Z" transform="translate(-25.79 -38.9)"/><path d="M91.21,104.15a1.68,1.68,0,0,1,1.44,1.55,1.53,1.53,0,0,1-.61,1.22,2.8,2.8,0,0,1-1.76.5,4.11,4.11,0,0,1-1.5-.26l-.16-.06-.06-.09a8.06,8.06,0,0,0,.07-.87l.11,0a2.46,2.46,0,0,0,1.52.5c.87,0,1.18-.46,1.18-.77,0-.47-.47-.63-1.14-.84l-.35-.11c-.45-.13-1.44-.43-1.44-1.5s1-1.59,2.22-1.59a4.48,4.48,0,0,1,1.58.29l0,.07c0,.38,0,.42-.09.82l-.1,0a2.49,2.49,0,0,0-1.42-.41,1.93,1.93,0,0,0-.47,0,.69.69,0,0,0-.6.62c0,.44.45.58,1.13.77Z" transform="translate(-25.79 -38.9)"/><path d="M96.5,104.15a1.67,1.67,0,0,1,1.43,1.55,1.5,1.5,0,0,1-.61,1.22,2.79,2.79,0,0,1-1.75.5,4.11,4.11,0,0,1-1.5-.26l-.17-.06-.05-.09c0-.4,0-.45.06-.87l.11,0a2.46,2.46,0,0,0,1.52.5c.87,0,1.18-.46,1.18-.77,0-.47-.47-.63-1.14-.84l-.35-.11c-.45-.13-1.44-.43-1.44-1.5s1-1.59,2.22-1.59a4.48,4.48,0,0,1,1.58.29l0,.07c0,.38,0,.42-.09.82l-.1,0a2.48,2.48,0,0,0-1.41-.41,1.93,1.93,0,0,0-.47,0,.69.69,0,0,0-.6.62c0,.44.45.58,1.13.77Z" transform="translate(-25.79 -38.9)"/><path d="M103.11,104c-1,0-1.43,0-2.75,0a1.46,1.46,0,0,1,1.45-1.43,1.24,1.24,0,0,1,1.2.81A2.31,2.31,0,0,1,103.11,104Zm.82,2a2.68,2.68,0,0,1-.79.45,3.16,3.16,0,0,1-1,.16,1.85,1.85,0,0,1-1.42-.56,1.94,1.94,0,0,1-.42-1.29h3.81l.08-.06a3.18,3.18,0,0,0-.59-2.18,2.36,2.36,0,0,0-1.8-.71,2.82,2.82,0,0,0,.27,5.63,3.74,3.74,0,0,0,1.75-.39l.07-.07A7.34,7.34,0,0,1,104,106Z" transform="translate(-25.79 -38.9)"/><path d="M113.55,104.57a3,3,0,0,1-.25,1.37,1.34,1.34,0,0,1-1.25.69,1.61,1.61,0,0,1-.65-.13,1.93,1.93,0,0,1-.88-1.87,2.6,2.6,0,0,1,.33-1.46,1.39,1.39,0,0,1,1.21-.6,1.3,1.3,0,0,1,1.17.59A3,3,0,0,1,113.55,104.57Zm1.2,0a2.91,2.91,0,0,0-.67-2,2.64,2.64,0,0,0-2-.74,2.57,2.57,0,0,0-2.8,2.82,2.89,2.89,0,0,0,.76,2.11,2.74,2.74,0,0,0,2,.69,2.62,2.62,0,0,0,1.9-.63,2.41,2.41,0,0,0,.71-1.25A4.74,4.74,0,0,0,114.75,104.53Z" transform="translate(-25.79 -38.9)"/><path d="M120.61,106.07c0,.44-.06.5-.09.92l-.08.07a3.32,3.32,0,0,1-1.51.35,2.59,2.59,0,0,1-2.73-2.74,2.68,2.68,0,0,1,2.75-2.88,3.83,3.83,0,0,1,1.5.33l0,.07c0,.37,0,.51-.08.82l-.09,0a2.14,2.14,0,0,0-1.22-.4,1.75,1.75,0,0,0-1.71,2c0,1.41.84,1.91,1.7,1.91a2.22,2.22,0,0,0,1.42-.52Z" transform="translate(-25.79 -38.9)"/><path d="M126.13,106.07c0,.44-.06.5-.09.92l-.08.07a3.32,3.32,0,0,1-1.51.35,2.59,2.59,0,0,1-2.73-2.74,2.68,2.68,0,0,1,2.75-2.88,3.83,3.83,0,0,1,1.5.33l0,.07c0,.37-.05.51-.08.82l-.09,0a2.14,2.14,0,0,0-1.22-.4,1.75,1.75,0,0,0-1.71,2c0,1.41.84,1.91,1.7,1.91A2.22,2.22,0,0,0,126,106Z" transform="translate(-25.79 -38.9)"/><path d="M128.73,107.28c-.57,0-.66,0-1.2,0l-.06-.07c0-.55.07-1,.07-2.17a19.54,19.54,0,0,0-.11-3l.06-.07c.47-.07.63-.09,1.18-.21l.11.06c0,.54-.07,1.09-.07,2.43,0,1.92,0,2.18.07,2.88Zm0-6.87c-.56,0-.68,0-1.22.08l-.07-.06c0-.13,0-.28,0-.41s0-.35,0-.56l.08-.06,1.22-.1.07.06c0,.42,0,.53,0,1Z" transform="translate(-25.79 -38.9)"/><path d="M134.43,106a1.91,1.91,0,0,1-1.23.46,1.48,1.48,0,0,1-1.13-.47,1.88,1.88,0,0,1-.41-1.27,2.06,2.06,0,0,1,.64-1.62,2.41,2.41,0,0,1,1.59-.48c.23,0,.36,0,.55,0C134.45,104.36,134.45,104.67,134.43,106Zm-.05-6.69a20.62,20.62,0,0,1,.1,2.5c-.3,0-.41,0-.64,0a3.64,3.64,0,0,0-2.41.71,2.8,2.8,0,0,0-1,2.22,2.45,2.45,0,0,0,2.47,2.66,2.36,2.36,0,0,0,1.51-.52l0,.38.08.06c.5,0,.63,0,1.12,0l.05-.07c0-.71-.09-1.48-.09-3.08,0-1,0-3.6.09-5l-.08-.06-1.16.22Z" transform="translate(-25.79 -38.9)"/><path d="M141.29,104c-1,0-1.43,0-2.75,0a1.46,1.46,0,0,1,1.45-1.43,1.24,1.24,0,0,1,1.2.81A2.82,2.82,0,0,1,141.29,104Zm.82,2a2.68,2.68,0,0,1-.79.45,3.16,3.16,0,0,1-.95.16A1.84,1.84,0,0,1,139,106a1.94,1.94,0,0,1-.42-1.29h3.81l.08-.06a3.18,3.18,0,0,0-.59-2.18,2.36,2.36,0,0,0-1.8-.71,2.82,2.82,0,0,0,.26,5.63A3.78,3.78,0,0,0,142,107l.07-.07a7.34,7.34,0,0,1,.09-.92Z" transform="translate(-25.79 -38.9)"/><path d="M148.94,107.28c-.53,0-.59,0-1.1,0l-.08-.07c0-.11,0-.23,0-.34,0-.51,0-1,0-1.52a7.91,7.91,0,0,0-.07-1.91,1,1,0,0,0-1-.78,2.47,2.47,0,0,0-1.46.58c0,1.8,0,2.74.09,4l-.06.06c-.54,0-.63,0-1.15,0l0-.07c0-.58,0-1.14,0-1.9,0-1.65-.08-2.53-.13-3.22l.07-.07,1.16-.21.08.07v.54a3.41,3.41,0,0,1,1.93-.64,2,2,0,0,1,.91.2,1.41,1.41,0,0,1,.63.67,3.23,3.23,0,0,1,.17,1.26v1.21c0,1.21,0,1.67.08,2.07Z" transform="translate(-25.79 -38.9)"/><path d="M153.48,106.48c0,.34,0,.41,0,.71l-.06.06a3.26,3.26,0,0,1-.82.09,1.47,1.47,0,0,1-1.3-.54c-.2-.3-.2-.55-.2-1.77l0-2.27-.79,0,0-.06c0-.33,0-.41,0-.74l.07-.06c.24,0,.39,0,.75,0,0-.22,0-.44,0-.66l0-.59.06-.07c.49-.11.62-.14,1.12-.29l.08,0c0,.68,0,.82,0,1.57l1.22,0,.06.06c0,.27,0,.38,0,.73l-.05.06-1.2,0,0,1.92c0,.12,0,.71,0,.86,0,.75.1,1,.65,1a1.64,1.64,0,0,0,.53-.09Z" transform="translate(-25.79 -38.9)"/><path d="M158,104.39v1.73a1.79,1.79,0,0,1-1.19.45.93.93,0,0,1-1-.94c0-.92,1-1.06,2.14-1.22Zm1.13-.25a6.27,6.27,0,0,0-.08-1.29c-.23-.81-1-1.06-1.83-1.06a5.9,5.9,0,0,0-1.9.34l-.07.06c0,.22,0,.28,0,.75l.09,0a4,4,0,0,1,1.67-.39,1,1,0,0,1,.91.38,1.2,1.2,0,0,1,.1.64l-.19,0c-2,.22-3.2.66-3.2,2a1.72,1.72,0,0,0,1.87,1.72,2.37,2.37,0,0,0,1.53-.53v.37l0,.06,1.11,0,.06,0a16.9,16.9,0,0,1-.07-2.07Z" transform="translate(-25.79 -38.9)"/><path d="M162.29,107.28l-1.15,0,0-.07c0-.73,0-1.66,0-3.65,0-1.43,0-3-.11-4.28l.05-.06c.54-.08.65-.1,1.2-.22l.07.07c-.08,1.35-.08,2.72-.08,4.07,0,2.26,0,3,.09,4Z" transform="translate(-25.79 -38.9)"/><path d="M168,104c-1,0-1.43,0-2.75,0a1.46,1.46,0,0,1,1.45-1.43,1.23,1.23,0,0,1,1.2.81A2.31,2.31,0,0,1,168,104Zm.82,2a2.68,2.68,0,0,1-.79.45,3.16,3.16,0,0,1-.95.16,1.85,1.85,0,0,1-1.42-.56,1.94,1.94,0,0,1-.42-1.29H169l.08-.06a3.18,3.18,0,0,0-.59-2.18,2.36,2.36,0,0,0-1.8-.71,2.82,2.82,0,0,0,.27,5.63,3.84,3.84,0,0,0,1.76-.39l.06-.07a7.34,7.34,0,0,1,.09-.92Z" transform="translate(-25.79 -38.9)"/><path d="M137,62.86c1.9.58,6.24,2,6.24,6.73a6.52,6.52,0,0,1-2.67,5.29c-2.52,2-5.9,2.15-7.62,2.15a18.54,18.54,0,0,1-6.52-1.12l-.71-.27-.24-.4c.19-1.75.19-2,.29-3.77l.48-.13a10.54,10.54,0,0,0,6.62,2.15c3.76,0,5.14-2,5.14-3.36,0-2.06-2.05-2.73-4.95-3.63L131.56,66c-1.95-.58-6.24-1.88-6.24-6.5s4.28-6.91,9.62-6.91a19,19,0,0,1,6.86,1.26l.24.31c-.19,1.66-.24,1.84-.38,3.54l-.43.18a11,11,0,0,0-6.14-1.79,8.19,8.19,0,0,0-2.05.22c-1.43.36-2.62,1.3-2.62,2.69,0,1.93,2,2.51,4.91,3.36Z" transform="translate(-25.79 -38.9)"/><path d="M165.63,64.66a12.94,12.94,0,0,1-1.1,6,5.84,5.84,0,0,1-5.42,3A6.77,6.77,0,0,1,156.3,73c-3.76-1.79-3.81-6.32-3.81-8.12s.14-4.48,1.43-6.32a6,6,0,0,1,5.24-2.6,5.62,5.62,0,0,1,5.09,2.56A13.36,13.36,0,0,1,165.63,64.66Zm5.19-.18c-.1-3.14-.71-6.28-2.9-8.65a11.52,11.52,0,0,0-8.52-3.23c-4.76,0-7.52,1.84-8.86,3.14-3.19,3-3.28,7.4-3.28,9.1,0,1.48.05,6,3.28,9.15,1.52,1.48,4.24,3,8.52,3,3.33,0,6.14-.76,8.24-2.74a10.49,10.49,0,0,0,3.09-5.43A18.51,18.51,0,0,0,170.82,64.48Z" transform="translate(-25.79 -38.9)"/><path d="M119.88,64.85A2.83,2.83,0,1,1,117.05,62,2.83,2.83,0,0,1,119.88,64.85Z" transform="translate(-25.79 -38.9)"/><path d="M54.65,45.14c0,3.45-.1,5.56-.1,8.7,0,7.53.14,15,.52,22.56l-.24.27c-4,0-5,0-8.57.13L46,76.53c.24-6.32.24-7.8.14-13.86-1.9,0-3.81-.09-5.71-.09s-3.62,0-5.71.13c0,6.5.09,8.12.38,13.68l-.24.27c-4.19,0-5.05,0-8.52.13l-.24-.27c.1-3.77.19-6,.19-10,0-11.12-.29-16.64-.52-21.26l.29-.27c4.14,0,4.86,0,8.52-.13l.24.27L34.75,57c1.67,0,3.38,0,5,0,2.14,0,4.24,0,6.33-.09,0-5.29,0-6.59-.38-11.66L46,45c4,0,4.62,0,8.43-.13Z" transform="translate(-25.79 -38.9)"/><path d="M67.83,62a5.24,5.24,0,0,1,2.29-4.35,3.53,3.53,0,0,1,1.9-.49,3.46,3.46,0,0,1,3,1.57,5.18,5.18,0,0,1,.71,3.09Zm14.43,8A15.19,15.19,0,0,1,74.83,72c-2.86,0-4.81-.85-6-2.47a6.16,6.16,0,0,1-1-2.74l15.38-.27.29-.31a24.75,24.75,0,0,0-.76-6.68c-1.67-5.29-5.33-6.37-6.95-6.73a13.09,13.09,0,0,0-3.38-.4C64.93,52.36,60,57,60,64.74a14.17,14.17,0,0,0,1.14,5.87c2.76,6,9.24,6.59,12.66,6.59A19.38,19.38,0,0,0,82,75.59l.29-.36.33-5.07Z" transform="translate(-25.79 -38.9)"/><path d="M102.34,62c2.62.94,6.29,2.24,6.29,7.17a6.91,6.91,0,0,1,0,1c-.86,6.41-8,7-11.61,7a21.1,21.1,0,0,1-7.81-1.52l-.24-.4c.19-2.24.24-2.73.33-5.07l.43-.18a10.7,10.7,0,0,0,1.91,1.26,12.53,12.53,0,0,0,5,1.26c2.66,0,3.76-1.21,3.76-2.33,0-1.61-2.1-2.29-3.38-2.69l-1.81-.63C93,66.09,89,64.66,89,59.86a6.5,6.5,0,0,1,1.29-4c2.48-3.36,7.14-3.54,9.47-3.54a25.61,25.61,0,0,1,7.28,1.12l.24.27-.48,4.89-.43.13a10.73,10.73,0,0,0-6-1.88c-3,0-3.33,1.48-3.33,2,0,1.26,1.29,1.75,2.9,2.29Z" transform="translate(-25.79 -38.9)"/><path d="M187,42.22,171.49,73.58c-1.22,2.49-.49,6.29,2.31,7.66a5.17,5.17,0,0,0,4,.15,6.2,6.2,0,0,0,3.54-3L196.85,47c1.22-2.49.49-6.29-2.31-7.66h0C191.76,38,188.22,39.79,187,42.22Zm-12.3,37.14c-1.62-.79-2.09-3.32-1.35-4.85l15.54-31.36c.75-1.52,3.06-2.69,4.7-1.89a3.56,3.56,0,0,1,1.69,3.24,3.69,3.69,0,0,1-.34,1.61L179.43,77.47a4.1,4.1,0,0,1-2.33,1.94A3.15,3.15,0,0,1,174.73,79.36Z" transform="translate(-25.79 -38.9)"/><path d="M200.68,42.22,185.14,73.58c-1.22,2.49-.49,6.29,2.31,7.66a5.14,5.14,0,0,0,4,.15,6.2,6.2,0,0,0,3.54-3L210.49,47c1.22-2.49.49-6.29-2.31-7.66h0C205.41,38,201.87,39.79,200.68,42.22ZM188.37,79.36c-1.62-.79-2.09-3.32-1.35-4.85l15.54-31.36c.75-1.52,3.06-2.69,4.7-1.89A3.56,3.56,0,0,1,209,44.5a3.69,3.69,0,0,1-.34,1.61L193.07,77.47a4.09,4.09,0,0,1-2.34,1.94A3.13,3.13,0,0,1,188.37,79.36Z" transform="translate(-25.79 -38.9)"/><path d="M218.52,68.23c1.28,0,1.78.65,1.78,1.94,0,3.9-2.55,6.83-6.59,6.83s-7-3.25-7-7.44,2.83-7.44,7-7.44c3,0,5.56,1.44,5.56,2.85A1.29,1.29,0,0,1,218,66.39c-1.38,0-1.66-1.48-4.31-1.48s-3.8,2.2-3.8,4.65,1.23,4.65,3.8,4.65A3.16,3.16,0,0,0,217.15,71h-2.06a1.37,1.37,0,0,1-1.42-1.42,1.35,1.35,0,0,1,1.42-1.37Z" transform="translate(-25.79 -38.9)"/><path d="M222,64.13c0-1,.5-1.76,1.57-1.76h5a1.35,1.35,0,0,1,1.44,1.4,1.37,1.37,0,0,1-1.44,1.4H225v3h3.32a1.37,1.37,0,0,1,1.48,1.39,1.4,1.4,0,0,1-1.48,1.4H225V74h3.74a1.34,1.34,0,0,1,1.43,1.4,1.37,1.37,0,0,1-1.43,1.4H223.5A1.47,1.47,0,0,1,222,75.26V64.13Z" transform="translate(-25.79 -38.9)"/><path d="M231.61,63.82a1.45,1.45,0,0,1,1.51-1.58,1.86,1.86,0,0,1,1.27.67l6.41,8.55h0V63.82a1.52,1.52,0,1,1,3,0V75.3a1.45,1.45,0,0,1-1.52,1.58,1.9,1.9,0,0,1-1.27-.67l-6.41-8.45h0V75.3a1.52,1.52,0,1,1-3,0V63.82Z" transform="translate(-25.79 -38.9)"/><path d="M246,64.13c0-1,.51-1.76,1.57-1.76h5a1.35,1.35,0,0,1,1.44,1.4,1.37,1.37,0,0,1-1.44,1.4H249v3h3.32a1.36,1.36,0,0,1,1.47,1.39,1.39,1.39,0,0,1-1.47,1.4H249V74h3.74a1.35,1.35,0,0,1,1.44,1.4,1.37,1.37,0,0,1-1.44,1.4h-5.22A1.47,1.47,0,0,1,246,75.26V64.13Zm5.54-5.1.16.08a1,1,0,0,1,.57.81c0,.71-.47,1.47-1.07,1.47-.41,0-.22,0-.81-.2l-2.26-.89a1.15,1.15,0,0,1-.83-1.19,1.29,1.29,0,0,1,1.09-1.25,2.25,2.25,0,0,1,.77.2Z" transform="translate(-25.79 -38.9)"/><path d="M254.89,64.45a1.89,1.89,0,0,1-.14-.75,1.52,1.52,0,0,1,1.56-1.46,1.5,1.5,0,0,1,1.37,1l3.14,8.41L264,63.23a1.51,1.51,0,0,1,2.93.47,1.92,1.92,0,0,1-.14.75l-4.43,11.26a1.54,1.54,0,0,1-3,0Z" transform="translate(-25.79 -38.9)"/><path d="M268.11,64.13a1.54,1.54,0,0,1,1.58-1.76h5a1.35,1.35,0,0,1,1.44,1.4,1.37,1.37,0,0,1-1.44,1.4h-3.56v3h3.32a1.36,1.36,0,0,1,1.47,1.39,1.39,1.39,0,0,1-1.47,1.4h-3.32V74h3.74a1.34,1.34,0,0,1,1.43,1.4,1.37,1.37,0,0,1-1.43,1.4h-5.22a1.48,1.48,0,0,1-1.56-1.52V64.13Z" transform="translate(-25.79 -38.9)"/></svg>