<?xml version="1.0" encoding="utf-8"?>
<!-- Generator: Adobe Illustrator 26.0.2, SVG Export Plug-In . SVG Version: 6.00 Build 0)  -->
<svg version="1.1" id="Calque_1" xmlns="http://www.w3.org/2000/svg" xmlns:xlink="http://www.w3.org/1999/xlink" x="0px" y="0px"
	 viewBox="0 0 907.09 510.24" style="enable-background:new 0 0 907.09 510.24;" xml:space="preserve">
<style type="text/css">
	.st0{clip-path:url(#SVGID_00000003812556999712066310000002846633889666924955_);}
</style>
<g>
	<defs>
		<rect id="SVGID_1_" x="28.88" y="34.88" width="842.13" height="426.96"/>
	</defs>
	<clipPath id="SVGID_00000163765123194403654300000016872115367950320056_">
		<use xlink:href="#SVGID_1_"  style="overflow:visible;"/>
	</clipPath>
	<path style="clip-path:url(#SVGID_00000163765123194403654300000016872115367950320056_);" d="M782.34,385.89
		c0.25-17.07,9.15-28.2,23.01-28.2c15.34,0,22.02,10.64,22.26,28.2H782.34z M828.35,420.28c-3.22,12.62-11.63,16.57-21.27,16.57
		c-14.84,0-24.49-8.91-24.98-30.43h77.18c0.49-4.21,0.74-8.66,0.74-13.36c0-36.61-21.77-59.86-53.93-59.86
		c-34.38,0-57.14,24.49-57.14,63.57s20.53,64.56,57.64,64.56c31.66,0,46.26-19.79,50.22-37.6L828.35,420.28z M646.29,336.42h-35.37
		l44.53,121.46h29.93l44.53-121.46h-34.14l-16.33,53.18c-3.46,11.38-5.44,19.54-7.92,30.18h-0.49c-2.47-10.64-4.45-18.8-7.92-30.18
		L646.29,336.42z M566.89,323.8l6.68-13.11l-58.13-37.6l-11.87,25.97L566.89,323.8z M514.45,385.89c0.25-17.07,9.15-28.2,23.01-28.2
		c15.34,0,22.02,10.64,22.26,28.2H514.45z M560.46,420.28c-3.22,12.62-11.63,16.57-21.27,16.57c-14.84,0-24.49-8.91-24.98-30.43
		h77.18c0.49-4.21,0.74-8.66,0.74-13.36c0-36.61-21.77-59.86-53.93-59.86c-34.38,0-57.14,24.49-57.14,63.57s20.53,64.56,57.64,64.56
		c31.66,0,46.26-19.79,50.22-37.6L560.46,420.28z M372.46,352.25c-0.25-5.19-0.49-10.88-0.99-15.83h-31.42
		c0.74,12.37,1.24,26.47,1.24,38.34v83.12h33.15v-67.28c0-22.76,11.63-30.18,22.51-30.18c6.93,0,11.87,2.97,14.35,6.93
		c2.97,4.45,4.21,10.14,4.21,18.8v71.74h33.15v-77.43c0-13.61-2.97-23.99-8.66-32.16c-6.43-9.15-16.57-15.09-33.89-15.09
		c-13.11,0-27.95,7.42-33.15,19.05H372.46z M229.74,385.89c0.25-17.07,9.15-28.2,23.01-28.2c15.34,0,22.02,10.64,22.26,28.2H229.74z
		 M275.75,420.28c-3.22,12.62-11.63,16.57-21.27,16.57c-14.84,0-24.49-8.91-24.98-30.43h77.18c0.49-4.21,0.74-8.66,0.74-13.36
		c0-36.61-21.77-59.86-53.93-59.86c-34.38,0-57.14,24.49-57.14,63.57s20.53,64.56,57.64,64.56c31.66,0,46.26-19.79,50.22-37.6
		L275.75,420.28z M161.71,457.88v-97.71H98.14v26.22h31.17v2.23c0,24.98-9.15,43.04-30.43,43.04c-19.29,0-31.91-17.07-31.91-61.59
		c0-44.77,11.87-61.84,32.9-61.84c16.08,0,23.99,10.39,25.73,29.44l35.37-4.95c-1.48-23.75-17.56-54.67-60.61-54.67
		c-46.51,0-71.49,34.63-71.49,92.02c0,61.1,28.69,91.77,67.78,91.77c17.56,0,32.65-9.4,38.84-25.73h0.49l3.96,21.77H161.71z"/>
	<path style="clip-path:url(#SVGID_00000163765123194403654300000016872115367950320056_);" d="M833.65,122.69
		c0,33.64-8.91,58.63-34.63,58.63h-20.78V64.07h17.32C826.98,64.07,833.65,93.26,833.65,122.69 M871.01,119.72
		c0-34.88-11.63-67.78-42.55-79.9c-8.16-3.22-17.81-4.95-29.19-4.95h-57.88v175.63h57.64c11.38,0,20.78-1.48,28.94-4.45
		C860.12,194.43,871.01,161.78,871.01,119.72 M655.3,149.66h-36.36l9.4-35.62c2.97-10.88,6.18-23.75,8.91-36.86h0.25
		c2.72,13.11,6.18,25.97,8.91,36.61L655.3,149.66z M710.71,210.51L655.3,34.88h-35.13l-55.16,175.63h37.35l8.91-32.41h51.7
		l8.66,32.41H710.71z M541.52,210.51v-30.18h-72.48v-46.01h59.12v-28.45h-59.12V65.06h72.48V34.88H431.94v175.63H541.52z
		 M382.46,210.51V34.88h-37.11v70.75h-49.23V34.88h-37.11v175.63h37.11V135.8h49.23v74.71H382.46z M202.79,114.53H41.71v14.35
		h161.09V114.53z"/>
</g>
</svg>
